<svg 
        width="238" 
        height="236"
        viewBox="0 0 238 236" 
        fill="none" 
        xmlns="http://www.w3.org/2000/svg">

            <path 
                d="M237.538 118.118C237.538 183.011 184.484 235.618 119.038 235.618C53.5924 235.618 0.538147 183.011 0.538147 118.118C0.538147 53.2242 53.5924 0.617645 119.038 0.617645C184.484 0.617645 237.538 53.2242 237.538 118.118ZM21.0268 118.118C21.0268 171.791 64.908 215.302 119.038 215.302C173.168 215.302 217.049 171.791 217.049 118.118C217.049 64.4443 173.168 20.9334 119.038 20.9334C64.908 20.9334 21.0268 64.4443 21.0268 118.118Z" 
                fill="#FD498C" 
                fill-opacity="0.2"/>
            <path class="color__pink"
                d="M22.3631 69.9667C17.2831 67.4365 15.1981 61.225 18.197 56.4068C28.84 39.3072 43.7628 25.1474 61.5877 15.3501C82.4431 3.88721 106.301 -1.07034 130.043 1.12544C153.785 3.32122 176.307 12.5682 194.665 27.6577C213.022 42.7472 226.362 62.9773 232.94 85.7038C239.518 108.43 239.028 132.596 231.535 155.042C224.042 177.488 209.893 197.171 190.939 211.517C171.985 225.863 149.107 234.205 125.295 235.454C104.915 236.522 84.6618 232.351 66.4736 223.425C61.3991 220.935 59.8784 214.588 62.8335 209.769C65.7573 205.002 71.9618 203.538 77.0225 205.919C91.6859 212.818 107.9 216.022 124.213 215.166C143.908 214.134 162.83 207.234 178.507 195.368C194.184 183.502 205.887 167.223 212.084 148.658C218.282 130.093 218.687 110.105 213.246 91.3081C207.806 72.5111 196.772 55.7788 181.589 43.2982C166.405 30.8177 147.777 23.1695 128.14 21.3534C108.503 19.5373 88.7704 23.6376 71.5209 33.1186C57.2622 40.9557 45.2488 52.1679 36.5114 65.6906C33.4609 70.4118 27.3945 72.4727 22.3631 69.9667Z" 
                fill="#FD498C"/>
            <path class="color__blue"
                d="M140.872 197.597C142.021 201.78 139.541 206.134 135.266 206.871C120.146 209.481 104.52 208.166 89.894 202.989C72.7713 196.928 57.816 185.856 46.9831 171.22C36.1501 156.584 29.9434 139.064 29.1742 120.952C28.4049 102.839 33.109 84.9752 42.6714 69.6958C52.2339 54.4164 66.2099 42.4319 82.7728 35.3088C99.3357 28.1858 117.715 26.2555 135.508 29.7703C153.301 33.2851 169.681 42.0814 182.506 55.0095C193.48 66.0727 201.415 79.7211 205.6 94.6068C206.768 98.7616 203.927 102.857 199.679 103.621C195.49 104.374 191.516 101.596 190.299 97.5174C186.758 85.6545 180.325 74.7845 171.532 65.9209C160.925 55.2281 147.377 47.9526 132.66 45.0455C117.944 42.1385 102.742 43.735 89.0431 49.6265C75.3439 55.518 63.7844 65.4303 55.8752 78.0679C47.9661 90.7055 44.0754 105.48 44.7117 120.462C45.3479 135.443 50.4815 149.933 59.4414 162.039C68.4013 174.144 80.7708 183.302 94.9331 188.315C106.641 192.459 119.125 193.611 131.253 191.724C135.487 191.065 139.737 193.466 140.872 197.597Z" 
                fill="#32D1F9"/>
            <path 
                d="M58.7441 50.6278C95.6058 17.6963 152.483 21.2162 185.782 58.4898C219.082 95.7634 216.194 152.676 179.332 185.607C142.47 218.539 85.5936 215.019 52.2941 177.746C18.9946 140.472 21.8823 83.5594 58.7441 50.6278ZM168.907 173.938C199.396 146.701 201.784 99.6284 174.242 68.7995C146.7 37.9705 99.6573 35.0592 69.1689 62.2968C38.6806 89.5345 36.2921 136.607 63.8341 167.436C91.3761 198.265 138.419 201.176 168.907 173.938Z" 
                fill="#32D1F9" 
                fill-opacity="0.2"/>

            <g class="middle__text"
                opacity="0.8">
            <path 
                d="M80.7402 118.785L91.6914 122.617V127.697L76.3281 121.316V117.643L80.7402 118.785ZM91.6914 115.674L80.7402 119.576L76.3281 120.684V116.992L91.6914 110.611V115.674ZM158.014 119.488L147.045 115.674V110.611L162.443 116.992V120.701L158.014 119.488ZM147.045 122.67L158.031 118.75L162.443 117.643V121.334L147.045 127.715V122.67Z" 
                fill="#FD498C"/>
            <path 
                d="M104.611 103H110.096V125.482L109.533 130H104.611V103ZM121.961 120.279V120.648C121.961 122.09 121.809 123.402 121.504 124.586C121.211 125.77 120.76 126.795 120.15 127.662C119.541 128.518 118.773 129.18 117.848 129.648C116.922 130.117 115.832 130.352 114.578 130.352C113.418 130.352 112.422 130.111 111.59 129.631C110.758 129.139 110.061 128.459 109.498 127.592C108.936 126.725 108.479 125.711 108.127 124.551C107.787 123.391 107.523 122.143 107.336 120.807V120.174C107.523 118.838 107.787 117.59 108.127 116.43C108.479 115.27 108.936 114.256 109.498 113.389C110.061 112.521 110.752 111.848 111.572 111.367C112.404 110.875 113.395 110.629 114.543 110.629C115.809 110.629 116.904 110.869 117.83 111.35C118.768 111.83 119.541 112.504 120.15 113.371C120.76 114.227 121.211 115.246 121.504 116.43C121.809 117.602 121.961 118.885 121.961 120.279ZM116.477 120.648V120.279C116.477 119.553 116.424 118.867 116.318 118.223C116.225 117.578 116.055 117.01 115.809 116.518C115.574 116.014 115.24 115.621 114.807 115.34C114.385 115.047 113.84 114.9 113.172 114.9C112.516 114.9 111.959 115.012 111.502 115.234C111.045 115.457 110.676 115.773 110.395 116.184C110.113 116.582 109.908 117.068 109.779 117.643C109.65 118.217 109.58 118.855 109.568 119.559V121.422C109.58 122.359 109.703 123.18 109.938 123.883C110.172 124.586 110.553 125.131 111.08 125.518C111.607 125.893 112.316 126.08 113.207 126.08C113.887 126.08 114.438 125.951 114.859 125.693C115.293 125.424 115.621 125.049 115.844 124.568C116.078 124.088 116.242 123.514 116.336 122.846C116.43 122.178 116.477 121.445 116.477 120.648ZM135.725 104.406L126.672 132.197H122.682L131.734 104.406H135.725Z" 
                fill="#32D1F9"/>
            </g>
        </svg>